<svg xmlns="http://www.w3.org/2000/svg" viewBox="0 0 580 80">
<defs>
  <filter id="d" x="-20%" y="-20%" width="140%" height="140%">
    <feMorphology operator="dilate" radius="1.5" in="SourceGraphic"/>
  </filter>
  <g id="l0"><rect x="15" y="5" width="10" height="10"/>
<rect x="25" y="5" width="10" height="10"/>
<rect x="35" y="5" width="10" height="10"/>
<rect x="5" y="15" width="10" height="10"/>
<rect x="45" y="15" width="10" height="10"/>
<rect x="5" y="25" width="10" height="10"/>
<rect x="5" y="35" width="10" height="10"/>
<rect x="25" y="35" width="10" height="10"/>
<rect x="35" y="35" width="10" height="10"/>
<rect x="45" y="35" width="10" height="10"/>
<rect x="5" y="45" width="10" height="10"/>
<rect x="45" y="45" width="10" height="10"/>
<rect x="15" y="55" width="10" height="10"/>
<rect x="25" y="55" width="10" height="10"/>
<rect x="35" y="55" width="10" height="10"/>
</g>
<g id="l1"><rect x="58" y="5" width="10" height="10"/>
<rect x="98" y="5" width="10" height="10"/>
<rect x="58" y="15" width="10" height="10"/>
<rect x="98" y="15" width="10" height="10"/>
<rect x="58" y="25" width="10" height="10"/>
<rect x="68" y="25" width="10" height="10"/>
<rect x="78" y="25" width="10" height="10"/>
<rect x="88" y="25" width="10" height="10"/>
<rect x="98" y="25" width="10" height="10"/>
<rect x="58" y="35" width="10" height="10"/>
<rect x="98" y="35" width="10" height="10"/>
<rect x="58" y="45" width="10" height="10"/>
<rect x="98" y="45" width="10" height="10"/>
<rect x="58" y="55" width="10" height="10"/>
<rect x="98" y="55" width="10" height="10"/>
<rect x="58" y="65" width="10" height="10"/>
<rect x="98" y="65" width="10" height="10"/>
</g>
<g id="l2"><rect x="121" y="5" width="10" height="10"/>
<rect x="131" y="5" width="10" height="10"/>
<rect x="141" y="5" width="10" height="10"/>
<rect x="111" y="15" width="10" height="10"/>
<rect x="151" y="15" width="10" height="10"/>
<rect x="111" y="25" width="10" height="10"/>
<rect x="151" y="25" width="10" height="10"/>
<rect x="111" y="35" width="10" height="10"/>
<rect x="151" y="35" width="10" height="10"/>
<rect x="111" y="45" width="10" height="10"/>
<rect x="151" y="45" width="10" height="10"/>
<rect x="121" y="55" width="10" height="10"/>
<rect x="131" y="55" width="10" height="10"/>
<rect x="141" y="55" width="10" height="10"/>
</g>
<g id="l3"><rect x="174" y="5" width="10" height="10"/>
<rect x="184" y="5" width="10" height="10"/>
<rect x="194" y="5" width="10" height="10"/>
<rect x="204" y="5" width="10" height="10"/>
<rect x="164" y="15" width="10" height="10"/>
<rect x="174" y="25" width="10" height="10"/>
<rect x="184" y="25" width="10" height="10"/>
<rect x="194" y="25" width="10" height="10"/>
<rect x="204" y="35" width="10" height="10"/>
<rect x="204" y="45" width="10" height="10"/>
<rect x="164" y="55" width="10" height="10"/>
<rect x="174" y="55" width="10" height="10"/>
<rect x="184" y="55" width="10" height="10"/>
<rect x="194" y="55" width="10" height="10"/>
</g>
<g id="l4"><rect x="217" y="5" width="10" height="10"/>
<rect x="227" y="5" width="10" height="10"/>
<rect x="237" y="5" width="10" height="10"/>
<rect x="247" y="5" width="10" height="10"/>
<rect x="257" y="5" width="10" height="10"/>
<rect x="237" y="15" width="10" height="10"/>
<rect x="237" y="25" width="10" height="10"/>
<rect x="237" y="35" width="10" height="10"/>
<rect x="237" y="45" width="10" height="10"/>
<rect x="237" y="55" width="10" height="10"/>
<rect x="237" y="65" width="10" height="10"/>
</g>
<g id="l5"><rect x="280" y="5" width="10" height="10"/>
<rect x="290" y="5" width="10" height="10"/>
<rect x="300" y="5" width="10" height="10"/>
<rect x="310" y="5" width="10" height="10"/>
<rect x="270" y="15" width="10" height="10"/>
<rect x="280" y="25" width="10" height="10"/>
<rect x="290" y="25" width="10" height="10"/>
<rect x="300" y="25" width="10" height="10"/>
<rect x="310" y="35" width="10" height="10"/>
<rect x="310" y="45" width="10" height="10"/>
<rect x="270" y="55" width="10" height="10"/>
<rect x="280" y="55" width="10" height="10"/>
<rect x="290" y="55" width="10" height="10"/>
<rect x="300" y="55" width="10" height="10"/>
</g>
<g id="l6"><rect x="333" y="5" width="10" height="10"/>
<rect x="343" y="5" width="10" height="10"/>
<rect x="353" y="5" width="10" height="10"/>
<rect x="323" y="15" width="10" height="10"/>
<rect x="363" y="15" width="10" height="10"/>
<rect x="323" y="25" width="10" height="10"/>
<rect x="323" y="35" width="10" height="10"/>
<rect x="323" y="45" width="10" height="10"/>
<rect x="363" y="45" width="10" height="10"/>
<rect x="333" y="55" width="10" height="10"/>
<rect x="343" y="55" width="10" height="10"/>
<rect x="353" y="55" width="10" height="10"/>
</g>
<g id="l7"><rect x="376" y="5" width="10" height="10"/>
<rect x="386" y="5" width="10" height="10"/>
<rect x="396" y="5" width="10" height="10"/>
<rect x="406" y="5" width="10" height="10"/>
<rect x="376" y="15" width="10" height="10"/>
<rect x="416" y="15" width="10" height="10"/>
<rect x="376" y="25" width="10" height="10"/>
<rect x="386" y="25" width="10" height="10"/>
<rect x="396" y="25" width="10" height="10"/>
<rect x="406" y="25" width="10" height="10"/>
<rect x="376" y="35" width="10" height="10"/>
<rect x="396" y="35" width="10" height="10"/>
<rect x="376" y="45" width="10" height="10"/>
<rect x="406" y="45" width="10" height="10"/>
<rect x="376" y="55" width="10" height="10"/>
<rect x="416" y="55" width="10" height="10"/>
<rect x="376" y="65" width="10" height="10"/>
<rect x="416" y="65" width="10" height="10"/>
</g>
<g id="l8"><rect x="429" y="5" width="10" height="10"/>
<rect x="439" y="5" width="10" height="10"/>
<rect x="449" y="5" width="10" height="10"/>
<rect x="459" y="5" width="10" height="10"/>
<rect x="469" y="5" width="10" height="10"/>
<rect x="429" y="15" width="10" height="10"/>
<rect x="429" y="25" width="10" height="10"/>
<rect x="439" y="25" width="10" height="10"/>
<rect x="449" y="25" width="10" height="10"/>
<rect x="459" y="25" width="10" height="10"/>
<rect x="429" y="35" width="10" height="10"/>
<rect x="429" y="45" width="10" height="10"/>
<rect x="429" y="55" width="10" height="10"/>
<rect x="439" y="55" width="10" height="10"/>
<rect x="449" y="55" width="10" height="10"/>
<rect x="459" y="55" width="10" height="10"/>
<rect x="469" y="55" width="10" height="10"/>
</g>
<g id="l9"><rect x="482" y="5" width="10" height="10"/>
<rect x="492" y="5" width="10" height="10"/>
<rect x="502" y="5" width="10" height="10"/>
<rect x="512" y="5" width="10" height="10"/>
<rect x="522" y="5" width="10" height="10"/>
<rect x="482" y="15" width="10" height="10"/>
<rect x="482" y="25" width="10" height="10"/>
<rect x="492" y="25" width="10" height="10"/>
<rect x="502" y="25" width="10" height="10"/>
<rect x="512" y="25" width="10" height="10"/>
<rect x="482" y="35" width="10" height="10"/>
<rect x="482" y="45" width="10" height="10"/>
<rect x="482" y="55" width="10" height="10"/>
<rect x="492" y="55" width="10" height="10"/>
<rect x="502" y="55" width="10" height="10"/>
<rect x="512" y="55" width="10" height="10"/>
<rect x="522" y="55" width="10" height="10"/>
</g>
<g id="l10"><rect x="535" y="5" width="10" height="10"/>
<rect x="575" y="5" width="10" height="10"/>
<rect x="535" y="15" width="10" height="10"/>
<rect x="545" y="15" width="10" height="10"/>
<rect x="575" y="15" width="10" height="10"/>
<rect x="535" y="25" width="10" height="10"/>
<rect x="555" y="25" width="10" height="10"/>
<rect x="575" y="25" width="10" height="10"/>
<rect x="535" y="35" width="10" height="10"/>
<rect x="565" y="35" width="10" height="10"/>
<rect x="575" y="35" width="10" height="10"/>
<rect x="535" y="45" width="10" height="10"/>
<rect x="575" y="45" width="10" height="10"/>
<rect x="535" y="55" width="10" height="10"/>
<rect x="575" y="55" width="10" height="10"/>
<rect x="535" y="65" width="10" height="10"/>
<rect x="575" y="65" width="10" height="10"/>
</g>

</defs>
<style>
  .dk { display: block; }
  .lt { display: none; }
  @media (prefers-color-scheme: light) {
    .dk { display: none; }
    .lt { display: block; }
  }
</style>
<g class="dk">
<use href="#l0" fill="#003d3a" filter="url(#d)"/>
<use href="#l0" fill="#00fff7"/>
<use href="#l1" fill="#003d3a" filter="url(#d)"/>
<use href="#l1" fill="#00fff7"/>
<use href="#l2" fill="#003d3a" filter="url(#d)"/>
<use href="#l2" fill="#00fff7"/>
<use href="#l3" fill="#003d3a" filter="url(#d)"/>
<use href="#l3" fill="#00fff7"/>
<use href="#l4" fill="#003d3a" filter="url(#d)"/>
<use href="#l4" fill="#00fff7"/>
<use href="#l5" fill="#003d3a" filter="url(#d)"/>
<use href="#l5" fill="#00fff7"/>
<use href="#l6" fill="#003d3a" filter="url(#d)"/>
<use href="#l6" fill="#00fff7"/>
<use href="#l7" fill="#003d3a" filter="url(#d)"/>
<use href="#l7" fill="#00fff7"/>
<use href="#l8" fill="#003d3a" filter="url(#d)"/>
<use href="#l8" fill="#00fff7"/>
<use href="#l9" fill="#003d3a" filter="url(#d)"/>
<use href="#l9" fill="#00fff7"/>
<use href="#l10" fill="#003d3a" filter="url(#d)"/>
<use href="#l10" fill="#00fff7"/>
</g>
<g class="lt">
<use href="#l0" fill="#00fff7" filter="url(#d)"/>
<use href="#l0" fill="#003d3a"/>
<use href="#l1" fill="#00fff7" filter="url(#d)"/>
<use href="#l1" fill="#003d3a"/>
<use href="#l2" fill="#00fff7" filter="url(#d)"/>
<use href="#l2" fill="#003d3a"/>
<use href="#l3" fill="#00fff7" filter="url(#d)"/>
<use href="#l3" fill="#003d3a"/>
<use href="#l4" fill="#00fff7" filter="url(#d)"/>
<use href="#l4" fill="#003d3a"/>
<use href="#l5" fill="#00fff7" filter="url(#d)"/>
<use href="#l5" fill="#003d3a"/>
<use href="#l6" fill="#00fff7" filter="url(#d)"/>
<use href="#l6" fill="#003d3a"/>
<use href="#l7" fill="#00fff7" filter="url(#d)"/>
<use href="#l7" fill="#003d3a"/>
<use href="#l8" fill="#00fff7" filter="url(#d)"/>
<use href="#l8" fill="#003d3a"/>
<use href="#l9" fill="#00fff7" filter="url(#d)"/>
<use href="#l9" fill="#003d3a"/>
<use href="#l10" fill="#00fff7" filter="url(#d)"/>
<use href="#l10" fill="#003d3a"/>
</g>
</svg>
